<svg xmlns="http://www.w3.org/2000/svg" width="799.662" height="676.74" viewBox="0 0 799.662 676.74" xmlns:xlink="http://www.w3.org/1999/xlink" role="img" artist="Katerina Limpitsouni" source="https://undraw.co/"><g transform="translate(-559.888 -145.501)"><path d="M386.105,351.559c18.059,6.932,37.308,17.419,47.062,34.908,9.4,16.859,5.735,36.3-4.5,51.855-12.319,18.716-31.529,31.541-51.5,40.914-22.74,10.673-47.062,17.591-71.416,23.474-12.351,2.984-24.77,5.681-37.189,8.365-2.591.56-3.7-3.42-1.1-3.982,25.045-5.412,50.162-10.841,74.585-18.675,22.6-7.25,45.729-16.536,64.237-31.759,14.973-12.315,29.209-30.3,28.325-50.756-.891-20.618-18.189-35.013-35.144-43.874" transform="translate(392.618 311.111)" fill="#d6d6e3"/><circle cx="66.509" cy="66.509" r="66.509" transform="translate(833.71 521.247)" fill="#0F94B4"/><path d="M422.519,466.684a66.514,66.514,0,0,0,110.824,70.391,66.515,66.515,0,1,1-110.824-70.391Z" transform="translate(428.592 76.647)" opacity="0.2" style="isolation:isolate"/><path d="M279.185,364.626h.183l3.289,188.564h-6.944Z" transform="translate(621.216 223.128)" fill="#cbcbcb"/><circle cx="80.109" cy="80.109" r="80.109" transform="translate(935.987 400.168)" fill="#0F94B4"/><path d="M642.729,354.38a80.116,80.116,0,0,1-133.486,84.785A80.116,80.116,0,1,0,642.729,354.38Z" transform="translate(432.518 72.393)" opacity="0.2" style="isolation:isolate"/><path d="M390.469,261.075h-.22L386.287,488.2h8.363Z" transform="translate(625.407 219.203)" fill="#cbcbcb"/><path d="M438.174,333.956l10.877-8.7c-8.45-.932-11.922,3.676-13.343,7.324-6.6-2.741-13.788.851-13.788.851l21.763,7.9A16.468,16.468,0,0,0,438.174,333.956Z" transform="translate(429.209 71.283)" fill="#d6d6e3"/><path d="M411.758,261.629l10.877-8.7c-8.45-.932-11.922,3.676-13.343,7.324-6.6-2.741-13.788.851-13.788.851l21.763,7.9a16.468,16.468,0,0,0-5.509-7.376Z" transform="translate(428.208 68.542)" fill="#0F94B4"/><path d="M560.216,308.391l10.877-8.7c-8.45-.932-11.922,3.676-13.343,7.324-6.6-2.741-13.788.851-13.788.851l21.763,7.9a16.469,16.469,0,0,0-5.509-7.376Z" transform="translate(433.834 70.314)" fill="#d6d6e3"/><circle cx="80.109" cy="80.109" r="80.109" transform="translate(935.987 400.168)" fill="#0F94B4" opacity="0"/></g></svg>