<svg xmlns="http://www.w3.org/2000/svg" width="799.031" height="618.536" viewBox="0 0 799.031 618.536" xmlns:xlink="http://www.w3.org/1999/xlink" role="img" artist="Katerina Limpitsouni" source="https://undraw.co/"><g transform="translate(-560.484 -230.946)"><path d="M15.18,488.763a1.491,1.491,0,0,0,1.4,1.573H715.908a1.583,1.583,0,0,0,0-3.146H16.582A1.492,1.492,0,0,0,15.18,488.763Z" transform="translate(593.82 358.721)" fill="#ccc"/><rect width="19.105" height="3.371" transform="translate(865.646 842.299)" fill="#b6b3c5"/><rect width="19.105" height="3.371" transform="translate(1034.779 842.861)" fill="#b6b3c5"/><path d="M352.955,370.945a27.529,27.529,0,0,1-54.321,0H229.146V521.536h193.3V370.945Z" transform="translate(634.205 321.324)" fill="#d6d6e3"/><rect width="193.296" height="5.242" transform="translate(863.914 830.928)" fill="#090814"/><path d="M788.255,487.17H10.776A10.788,10.788,0,0,1,0,476.394V32.688A10.788,10.788,0,0,1,10.776,21.911H788.255a10.789,10.789,0,0,1,10.776,10.776V476.394a10.789,10.789,0,0,1-10.776,10.776Z" transform="translate(560.484 209.035)" fill="#090814"/><rect width="760.822" height="429.297" transform="translate(580.031 248.924)" fill="#fff"/><path d="M696.623,255.129H182.985a1,1,0,0,1,0-2H696.623a1,1,0,0,1,0,2Z" transform="translate(517.135 158.137)" fill="#d6d6e3"/><path d="M696.623,295.129H182.985a1,1,0,0,1,0-2H696.623a1,1,0,0,1,0,2Z" transform="translate(517.135 158.137)" fill="#d6d6e3"/><path d="M696.623,335.129H182.985a1,1,1,0,1,1,0-2H696.623a1,1,0,0,1,0,2Z" transform="translate(517.135 158.137)" fill="#d6d6e3"/><path d="M696.623,375.129H182.985a1,1,0,1,1,0-2H696.623a1,1,0,0,1,0,2Z" transform="translate(517.135 158.137)" fill="#d6d6e3"/><path d="M696.623,415.129H182.985a1,1,0,1,1,0-2H696.623a1,1,0,0,1,0,2Z" transform="translate(517.135 158.137)" fill="#d6d6e3"/><path d="M304.615,416.685a1,1,0,0,1-1-.994l-1-162a1,1,0,0,1,.994-1.006h.006a1,1,0,0,1,1,.994l1,162a1,1,0,0,1-.994,1.006Z" transform="translate(517.135 158.137)" fill="#d6d6e3"/><path d="M443.615,416.685a1,1,0,0,1-1-.994l-1-162a1,1,0,0,1,.994-1.006h.006a1,1,0,0,1,1,.994l1,162a1,1,0,0,1-.994,1.006Z" transform="translate(517.135 158.137)" fill="#d6d6e3"/><path d="M582.615,416.685a1,1,0,0,1-1-.994l-1-162a1,1,0,0,1,.994-1.006h.006a1,1,0,0,1,1,.994l1,162a1,1,0,0,1-.994,1.006Z" transform="translate(517.135 158.137)" fill="#d6d6e3"/><path d="M288.115,221.185h-95a13.5,13.5,0,0,1,0-27h95a13.5,13.5,0,1,1,0,27Z" transform="translate(517.135 158.137)" fill="#0F94B4"/><path d="M259.669,285.685H221.561a10.946,10.946,0,1,1,0-21.892h38.108a10.946,10.946,0,1,1,0,21.892Z" transform="translate(517.135 158.137)" fill="#0F94B4"/><path d="M392.669,324.685H354.561a10.946,10.946,0,1,1,0-21.892h38.108a10.946,10.946,0,1,1,0,21.892Z" transform="translate(517.135 158.137)" fill="#0F94B4"/><path d="M392.669,367.685H354.561a10.946,10.946,0,1,1,0-21.892h38.108a10.946,10.946,0,0,1,0,21.892Z" transform="translate(517.135 158.137)" fill="#0F94B4"/><path d="M534.669,286.685H496.561a10.946,10.946,0,1,1,0-21.892h38.108a10.946,10.946,0,0,1,0,21.892Z" transform="translate(517.135 158.137)" fill="#0F94B4"/><path d="M422.948,221.685h-95a13.5,13.5,0,0,1,0-27h95a13.5,13.5,0,1,1,0,27Z" transform="translate(517.135 158.137)" fill="#0F94B4"/><path d="M557.782,222.685h-95a13.5,13.5,0,1,1,0-27h95a13.5,13.5,0,0,1,0,27Z" transform="translate(517.135 158.137)" fill="#0F94B4"/><path d="M692.615,222.685h-95a13.5,13.5,0,1,1,0-27h95a13.5,13.5,0,0,1,0,27Z" transform="translate(517.135 158.137)" fill="#0F94B4"/><path d="M234.589,216.066l9.1-14.837-2.742-.358,5.54,13.94a1.546,1.546,0,0,0,1.845,1.048,1.51,1.51,0,0,0,1.048-1.845l-5.54-13.94a1.523,1.523,0,0,0-2.742-.358L232,214.552c-1.012,1.65,1.581,3.159,2.59,1.514Z" transform="translate(517.135 158.137)" fill="#fff"/><path d="M236.646,211.073l7.937-.119a1.5,1.5,0,1,0,0-3l-7.937.119a1.5,1.5,0,0,0,0,3Z" transform="translate(517.135 158.137)" fill="#fff"/><path d="M380.648,207.839a4.329,4.329,0,0,0-.8-1.108,3.855,3.855,0,0,0,.219-4.518,5.394,5.394,0,0,0-3.159-2.227,10.776,10.776,0,0,0-4.6.1,1.392,1.392,0,0,0-.308-.037,1.525,1.525,0,0,0-1.5,1.5l-.529,11.825a1.357,1.357,0,0,0-.149.292,1.606,1.606,0,0,0,.1,1.031,1.523,1.523,0,0,0,1.492,1.391,1.443,1.443,0,0,0,1-.4c2.962.22,6.066-.261,7.839-2.949A5.012,5.012,0,0,0,380.648,207.839Zm-3.246,3.7a5.391,5.391,0,0,1-4.4,1.221l.441-9.842c1.349-.222,2.886-.341,3.819.568a1.907,1.907,0,0,1,.376.507c.01.027.083.4.075.3.016.218.023.107-.036.307a1.2,1.2,0,0,1-.9.818,1.537,1.537,0,0,0-1.5,1.5,1.519,1.519,0,0,0,1.5,1.5,1.376,1.376,0,0,1,1.308,1.091,2.347,2.347,0,0,1-.686,2.033Z" transform="translate(517.135 158.137)" fill="#fff"/><path d="M512.962,200.848a9.672,9.672,0,0,0-7.9,9.234,8.969,8.969,0,0,0,2.312,6.378c1.789,1.834,4.268,1.854,6.639,1.536a1.55,1.55,0,0,0,1.5-1.5c0-.727-.691-1.608-1.5-1.5-1.544.207-3.418.543-4.594-.736a6.129,6.129,0,0,1-1.347-4.414,6.687,6.687,0,0,1,5.692-6.105,1.512,1.512,0,0,0,1.048-1.845,1.534,1.534,0,0,0-1.845-1.048Z" transform="translate(517.135 158.137)" fill="#fff"/><path d="M640.44,202.266l.384,14.461a1.522,1.522,0,0,0,1.9,1.446,8.876,8.876,0,0,0-.074-17.395,1.538,1.538,0,0,0-1.845,1.048,1.515,1.515,0,0,0,1.048,1.845,5.888,5.888,0,0,1,.074,11.609l1.9,1.446-.384-14.461C643.389,200.339,640.389,200.332,640.44,202.266Z" transform="translate(517.135 158.137)" fill="#fff"/></g></svg>